HIERARCHY
ROOT ui
{
	 OFFSET 0 0 0
	 CHANNELS 3 XPosition YPosition Z Position
	 EndSite
	 {
	 OFFSET 0 -1 0
	 }
}
ROOT li
{
	 OFFSET 0 0 0
	 CHANNELS 3 XPosition YPosition Z Position
	 EndSite
	 {
	 OFFSET 0 -1 0
	 }
}
ROOT ul
{
	 OFFSET 0 0 0
	 CHANNELS 3 XPosition YPosition Z Position
	 EndSite
	 {
	 OFFSET 0 -1 0
	 }
}
ROOT ll
{
	 OFFSET 0 0 0
	 CHANNELS 3 XPosition YPosition Z Position
	 EndSite
	 {
	 OFFSET 0 -1 0
	 }
}
ROOT tt
{
	 OFFSET 0 0 0
	 CHANNELS 3 XPosition YPosition Z Position
	 EndSite
	 {
	 OFFSET 0 -1 0
	 }
}
ROOT tb
{
	 OFFSET 0 0 0
	 CHANNELS 3 XPosition YPosition Z Position
	 EndSite
	 {
	 OFFSET 0 -1 0
	 }
}
ROOT td
{
	 OFFSET 0 0 0
	 CHANNELS 3 XPosition YPosition Z Position
	 EndSite
	 {
	 OFFSET 0 -1 0
	 }
}
ROOT v
{
	 OFFSET 0 0 0
	 CHANNELS 3 XPosition YPosition Z Position
	 EndSite
	 {
	 OFFSET 0 -1 0
	 }
}
ROOT bn
{
	 OFFSET 0 0 0
	 CHANNELS 3 XPosition YPosition Z Position
	 EndSite
	 {
	 OFFSET 0 -1 0
	 }
}
MOTION
Frames: 30
Frame Time: 0.002
0.008411263465881348	0.0014190850257873534	0		0.7045092163085938	-2.77251904296875	0		-0.9764270629882813	0.021406946182250978	0		-0.595070068359375	-2.36899609375	0		2.5012841796875	-1.36847607421875	0		4.07522900390625	-0.934007568359375	0		5.44417822265625	-0.6772632446289063	0		5.96793798828125	0.373959228515625	0		-0.0922127456665039	5.951912109375	0		
0.002542886972427368	0.003314129114151001	0		0.6567572631835937	-2.760155517578125	0		-0.9712849731445312	0.024178422927856446	0		-0.585859375	-2.360269287109375	0		2.531548583984375	-1.3549813232421875	0		4.063517822265625	-0.9180431518554687	0		5.42938916015625	-0.6682638549804687	0		5.97295703125	0.36573703002929686	0		-0.04191096115112305	5.96918115234375	0		
0.015721729278564453	0.00805805492401123	0		0.7029263305664063	-2.75578173828125	0		-0.8941658325195313	0.023211275100708008	0		-0.5837199096679687	-2.35840087890625	0		2.50981494140625	-1.3418543701171874	0		4.07566064453125	-0.9162991943359375	0		5.42951123046875	-0.6683896484375	0		5.9632724609375	0.38272024536132815	0		-0.006705732822418213	5.9746796875	0		
-0.001228978991508484	1.9870799779891967E-4	0		0.6740599975585938	-2.75451171875	0		-0.8940281982421875	0.02316720199584961	0		-0.5326558227539062	-2.364015869140625	0		2.499168212890625	-1.3217977294921874	0		4.06988232421875	-0.90830712890625	0		5.41475732421875	-0.6583054809570312	0		5.963412109375	0.38263427734375	0		-0.022653556823730468	5.9638095703125	0		
0.01882826805114746	-0.0080133695602417	0		0.6741824951171875	-2.754507080078125	0		-0.9759085083007812	0.02110267448425293	0		-0.5664828491210937	-2.359620361328125	0		2.5074375	-1.30989990234375	0		4.04621337890625	-0.8910665893554688	0		5.42083154296875	-0.6644110717773437	0		5.96437353515625	0.3655801696777344	0		-0.023439579010009766	5.96483154296875	0		
-0.010837904930114746	0.00839126491546631	0		0.6513818969726562	-2.747188232421875	0		-0.9547788696289062	0.018950056076049805	0		-0.5473372192382813	-2.357755859375	0		2.51974169921875	-1.2949952392578126	0		4.015458251953125	-0.8816991577148438	0		5.40604443359375	-0.6582391357421875	0		5.95962109375	0.37363357543945314	0		-0.07523326110839844	5.96348388671875	0		
0.0032571470737457276	0.0033637499809265137	0		0.6585933837890625	-2.73814794921875	0		-0.9795916137695313	0.022372835159301756	0		-0.6001162109375	-2.34802587890625	0		2.474090087890625	-1.2753897705078125	0		4.04671826171875	-0.870977783203125	0		5.399265625	-0.651112548828125	0		5.9736875	0.3655177307128906	0		-0.02283949661254883	5.97703076171875	0		
0.0034008429050445556	0.00354951810836792	0		0.7016985473632813	-2.737455810546875	0		-0.9504494018554688	0.02225015068054199	0		-0.5260735473632813	-2.35365966796875	0		2.47643603515625	-1.25527001953125	0		4.019971923828125	-0.8595591430664062	0		5.3796123046875	-0.6317960815429687	0		5.96483837890625	0.36570211791992185	0		-0.02173930549621582	5.96420654296875	0		
-0.010413410186767579	0.008946711540222169	0		0.6649011840820312	-2.725813720703125	0		-0.9443656616210937	0.018441287994384766	0		-0.5979064331054688	-2.345600830078125	0		2.4528681640625	-1.2258089599609374	0		3.998130615234375	-0.855148193359375	0		5.37258349609375	-0.6445784301757812	0		5.950884765625	0.3579870300292969	0		-0.021497535705566406	5.964447265625	0		
-0.007475115776062012	-0.005794897079467774	0		0.6997930297851562	-2.739929443359375	0		-0.9442581787109375	0.018751506805419923	0		-0.5020556945800781	-2.364377197265625	0		2.46125390625	-1.1986595458984375	0		3.99636669921875	-0.8419169311523438	0		5.3608583984375	-0.6282626953125	0		5.94708935546875	0.36620144653320313	0		-0.021268999099731446	5.96473876953125	0		
-3.163119852542877E-4	0.0014631129503250122	0		0.6499310302734375	-2.7290439453125	0		-0.9681419677734375	0.022379356384277342	0		-0.5609993896484375	-2.361364013671875	0		2.435524658203125	-1.179082763671875	0		3.99642919921875	-0.8416648559570312	0		5.35192578125	-0.6279382934570312	0		5.9559853515625	0.3493114318847656	0		-0.040003780364990235	5.97029052734375	0		
-0.010175310134887695	0.009954278945922851	0		0.698008544921875	-2.721222412109375	0		-0.930093994140625	0.02234982681274414	0		-0.5440134887695313	-2.3621650390625	0		2.43096728515625	-1.1417032470703126	0		3.95680224609375	-0.810923583984375	0		5.3360419921875	-0.620496337890625	0		5.9562353515625	0.3665587158203125	0		-0.03883458709716797	5.96965869140625	0		
-2.49333992600441E-4	0.0022565250396728515	0		0.64402587890625	-2.7152119140625	0		-0.9649384155273437	0.03518045043945312	0		-0.54404833984375	-2.36173828125	0		2.439275634765625	-1.113434326171875	0		3.956801513671875	-0.810595703125	0		5.33014794921875	-0.61113134765625	0		5.952169921875	0.35888851928710935	0		-0.004620863914489746	5.97568896484375	0		
-0.004311688899993896	-0.0012535029649734498	0		0.669175537109375	-2.695066162109375	0		-0.9310025024414063	0.031260103225708005	0		-0.546138916015625	-2.363259521484375	0		2.419610107421875	-1.079817626953125	0		3.9449716796875	-0.7921013793945313	0		5.30216455078125	-0.606484130859375	0		5.94706982421875	0.35126226806640626	0		-0.01964497184753418	5.96430419921875	0		
-0.007397401809692383	-0.0037523410320281984	0		0.61514013671875	-2.688	0		-0.959063232421875	0.031064233779907226	0		-0.4993558654785156	-2.37331494140625	0		2.425808349609375	-1.05547021484375	0		3.914973876953125	-0.785375	0		5.28720361328125	-0.5969562377929688	0		5.93902587890625	0.3516979675292969	0		-0.020551624298095702	5.96678271484375	0		
-0.003540083885192871	-0.008315143585205078	0		0.6737262573242188	-2.712199462890625	0		-0.9941002807617187	0.03596298599243164	0		-0.5166449584960937	-2.386628662109375	0		2.399091552734375	-1.0207291870117188	0		3.8811259765625	-0.76258203125	0		5.26119921875	-0.5882797241210938	0		5.94284423828125	0.3430216369628906	0		-0.0034215350151062013	5.9760712890625	0		
0.007467304229736328	0.0030504329204559325	0		0.6526771850585937	-2.701480712890625	0		-0.9901714477539062	0.04042608642578125	0		-0.5117470703125	-2.381185302734375	0		2.408468994140625	-0.9753848876953125	0		3.913084716796875	-0.7545233764648438	0		5.255140625	-0.5818118286132813	0		5.9478125	0.35035220336914064	0		-0.020399198532104493	5.97975634765625	0		
-6.67248010635376E-4	0.0046372427940368655	0		0.6777154541015625	-2.681281982421875	0		-0.9503199462890625	0.04048047637939453	0		-0.5169872436523437	-2.385624267578125	0		2.40561572265625	-0.9478941040039063	0		3.86715771484375	-0.7335645751953125	0		5.2211357421875	-0.5680103149414063	0		5.93359228515625	0.34391595458984375	0		-0.004476906776428223	5.97806982421875	0		
6.740999966859818E-5	-0.0028792428970336914	0		0.64950732421875	-2.6804765625	0		-0.9614811401367187	0.042113327026367185	0		-0.47639022827148436	-2.402590576171875	0		2.39888671875	-0.9073546752929688	0		3.824056884765625	-0.7256311645507812	0		5.19381884765625	-0.5792767944335937	0		5.934240234375	0.3283201599121094	0		-0.0035818939208984374	5.97755322265625	0		
-0.004177677154541016	-0.006345564842224121	0		0.6492772216796875	-2.679996337890625	0		-0.9906897583007812	0.041943767547607425	0		-0.5156146240234375	-2.401651123046875	0		2.39312353515625	-0.8678282470703125	0		3.796862060546875	-0.7238782348632813	0		5.16772900390625	-0.5685514526367188	0		5.928953125	0.3207979736328125	0		-0.05291610717773437	5.9606025390625	0		
-0.008343393325805665	-8.243190050125122E-4	0		0.6251107177734375	-2.67225244140625	0		-0.9509151611328125	0.04197077560424805	0		-0.49604473876953126	-2.417398681640625	0		2.26149609375	-0.8138668823242188	0		3.78088525390625	-0.7012562866210937	0		5.135685546875	-0.5517587280273437	0		5.91581396484375	0.32836663818359374	0		-0.0038806450366973876	5.9785166015625	0		
0.003434847116470337	0.0014975119829177856	0		0.6558681030273438	-2.67015283203125	0		-0.9870074462890625	0.05584875106811524	0		-0.4963063659667969	-2.416935546875	0		2.18575537109375	-0.7685562744140625	0		3.759878173828125	-0.67958544921875	0		5.1236103515625	-0.5362005004882813	0		5.91538916015625	0.31278363037109375	0		-0.0030921499729156493	5.97796435546875	0		
-0.008848003387451172	7.421000301837922E-5	0		0.684591064453125	-2.6700498046875	0		-0.9183640747070313	0.04750272750854492	0		-0.466685302734375	-2.425837158203125	0		2.2128212890625	-0.7394404296875	0		3.743763671875	-0.6659841918945313	0		5.09439453125	-0.53145703125	0		5.9110390625	0.305237060546875	0		-0.018457115173339842	5.966576171875	0		
-0.009120735168457031	4.889180064201356E-4	0		0.6553104858398437	-2.66930517578125	0		-0.9966315307617187	0.048815109252929687	0		-0.5059642639160157	-2.4249736328125	0		2.28799951171875	-0.6998964233398437	0		3.73264990234375	-0.6514578857421875	0		5.070052734375	-0.5367852783203125	0		5.89767626953125	0.29777984619140624	0		-0.053774650573730466	5.961392578125	0		
-0.005456840991973877	-0.0041703500747680665	0		0.6840247192382812	-2.669252685546875	0		-0.9638547973632813	0.05382460403442383	0		-0.5103047790527344	-2.4295400390625	0		2.238307861328125	-0.6479447021484375	0		3.67664892578125	-0.6264385375976562	0		5.04205029296875	-0.5120897827148437	0		5.88821533203125	0.2822584228515625	0		-0.018974573135375976	5.96737744140625	0		
-0.005733089923858643	-0.0038163208961486815	0		0.6338651123046875	-2.658326171875	0		-0.9971861572265625	0.04955788803100586	0		-0.5475453491210938	-2.42576171875	0		2.212480224609375	-0.608296142578125	0		3.651546142578125	-0.610800537109375	0		5.02078662109375	-0.5104974060058594	0		5.8748369140625	0.2737593078613281	0		-0.03720090484619141	5.9719375	0		
0.02908005142211914	0.00310037899017334	0		0.66564697265625	-2.654374267578125	0		-0.9553162231445312	0.061392898559570315	0		-0.5088100891113281	-2.42589111328125	0		2.182906005859375	-0.5476351318359375	0		3.645592041015625	-0.5834110107421875	0		4.9966728515625	-0.49689898681640626	0		5.88356005859375	0.27298114013671876	0		-0.0014287780523300172	5.9758427734375	0		
-0.0012891490459442138	-0.007274560928344727	0		0.6295375366210938	-2.64268017578125	0		-1.0155345458984375	0.0643583984375	0		-0.51612841796875	-2.43253125	0		2.1431923828125	-0.5008933410644532	0		3.6076376953125	-0.5576868286132812	0		4.971568359375	-0.48431939697265625	0		5.8612236328125	0.2655300598144531	0		-0.00365539288520813	5.97914599609375	0		
-0.00646193790435791	-0.002977650880813599	0		0.6733612060546875	-2.639942138671875	0		-0.9757564086914062	0.06413557434082032	0		-0.5224169921875	-2.439224365234375	0		2.110413330078125	-0.46226873779296873	0		3.574514892578125	-0.5490540771484375	0		4.94445654296875	-0.4747497253417969	0		5.84792431640625	0.25894406127929687	0		-0.02003604507446289	5.96756982421875	0		
-0.006649687767028809	-0.0027796831130981444	0		0.6192488403320312	-2.6341220703125	0		-0.9809900512695312	0.06038571548461914	0		-0.5296709594726563	-2.44594873046875	0		2.07174609375	-0.4166152648925781	0		3.567548095703125	-0.5297573852539063	0		4.9143076171875	-0.471180908203125	0		5.838541015625	0.24227862548828125	0		-0.05432332992553711	5.96215771484375	0		
